<svg xmlns="http://www.w3.org/2000/svg" version="1.1" xmlns:xlink="http://www.w3.org/1999/xlink" xmlns:svgjs="http://svgjs.dev/svgjs" width="148" height="92"><svg width="148" height="92" viewBox="0 0 148 92" fill="none" xmlns="http://www.w3.org/2000/svg">
<path d="M42.8082 59.158H15.2281C13.6927 59.158 12.2176 59.7555 11.1151 60.8242L1 70.6289L11.7208 69.3527L39.9412 64.8934L42.8082 59.158Z" fill="#FC743A" stroke="black" stroke-width="0.844167" stroke-linecap="round" stroke-linejoin="round"></path>
<path d="M42.213 62.6318L19.0979 71.3475C17.4306 71.9762 16.0596 73.2072 15.2559 74.7976L8.85156 87.4693L31.7619 77.593C32.8776 77.1121 33.8747 76.3932 34.6836 75.4866L43.8811 65.1788L42.213 62.6318Z" fill="#FC743A" stroke="black" stroke-width="0.844167" stroke-linecap="round" stroke-linejoin="round"></path>
<path d="M142.8 23.7172C142.061 22.2054 138.301 17.8094 131.452 16.3008C130.72 8.18077 124.498 -4.68926 100.392 8.56045C89.5938 -5.42347 64.8548 -0.277776 57.2118 26.2445L57.1127 26.2159C53.5586 25.354 50.3457 29.2306 48.1776 32.1562C46.0382 35.043 43.5733 40.2634 42.6857 43.7452C40.8046 51.1241 40.0985 54.4074 40.5313 61.8097C40.9537 69.0342 43.9539 76.4781 49.962 80.5121C54.8952 83.8243 62.2189 85.2783 68.1384 85.7951C78.5628 86.7051 87.6034 91.6942 98.0562 91.2066C103.609 90.9476 111.4 86.282 115.697 85.2959C141.14 79.4565 138.426 70.2748 141.283 62.1334C142.239 59.412 141.007 56.3064 139.613 53.7818C138.218 51.2572 133.243 47.3364 133.243 47.3364C134.053 47.1021 134.856 46.8346 135.651 46.5339C137.292 45.9126 149.825 41.5208 144.256 38.736C139.462 36.3393 147.414 33.1547 142.8 23.7172Z" fill="#20C954" stroke="black" stroke-width="0.844167" stroke-linecap="round" stroke-linejoin="round"></path>
<path d="M57.9271 47.0907C52.3576 37.8081 56.4364 28.9328 57.2109 26.2449" stroke="black" stroke-width="0.844167" stroke-linecap="round" stroke-linejoin="round"></path>
<path d="M143.326 23.8838C143.326 23.8838 137.756 19.2425 109.909 16.4577C81.1849 13.5853 67.5179 18.7817 55.1415 38.7359C47.6463 50.8203 37.5046 49.875 40.2894 61.014C37.0276 60.2915 36.6075 53.6195 37.516 48.1247C37.8741 45.959 39.1433 44.0848 40.8922 42.7582C50.6767 35.3364 56.9267 15.5489 77.4197 9.95991C105.987 2.16874 123.513 7.82873 135.29 13.3996C137.143 14.276 138.703 15.6711 139.774 17.4185C141.504 20.2394 143.326 23.8838 143.326 23.8838Z" fill="#FC743A" stroke="black" stroke-width="0.844167" stroke-linecap="round" stroke-linejoin="round"></path>
<path d="M107.463 21.5147C97.8159 8.5119 94.1317 6.24666 71.8535 22.9553Z" fill="#20C954"></path>
<path d="M107.463 21.5147C97.8159 8.5119 94.1317 6.24666 71.8535 22.9553" stroke="black" stroke-width="0.844167" stroke-linecap="round" stroke-linejoin="round"></path>
<path d="M140.547 22.9553C132.193 15.5292 130.336 10.8879 108.986 18.314Z" fill="#20C954"></path>
<path d="M140.547 22.9553C132.193 15.5292 130.336 10.8879 108.986 18.314" stroke="black" stroke-width="0.844167" stroke-linecap="round" stroke-linejoin="round"></path>
<path d="M140.495 40.2777C142.274 39.847 144.074 39.2578 145.466 38.0698C146.858 36.8817 147.764 34.9714 147.311 33.1982C146.835 31.3365 145.067 30.1217 143.343 29.2742C138.215 26.7544 132.255 25.9662 126.648 27.0666C123.807 27.6242 121.065 28.6659 118.558 30.1127C117.209 30.8909 111.705 34.0598 112.356 35.9043C112.971 37.6467 119.1 39.4034 120.727 39.892C123.705 40.7863 126.792 41.3169 129.897 41.4702C133.452 41.6456 137.034 41.1159 140.495 40.2777Z" fill="white" stroke="black" stroke-width="0.844167" stroke-linecap="round" stroke-linejoin="round"></path>
<path d="M128.226 40.5923C132.164 40.5923 135.357 37.6831 135.357 34.0945C135.357 30.5059 132.164 27.5967 128.226 27.5967C124.288 27.5967 121.096 30.5059 121.096 34.0945C121.096 37.6831 124.288 40.5923 128.226 40.5923Z" fill="black" stroke="black" stroke-width="0.844167" stroke-linecap="round" stroke-linejoin="round"></path>
<path d="M131.052 34.7276C132.037 34.7276 132.835 33.9295 132.835 32.945C132.835 31.9605 132.037 31.1624 131.052 31.1624C130.068 31.1624 129.27 31.9605 129.27 32.945C129.27 33.9295 130.068 34.7276 131.052 34.7276Z" fill="white" stroke="black" stroke-width="0.844167" stroke-linecap="round" stroke-linejoin="round"></path>
<path d="M126.131 31.3717C126.826 31.3717 127.39 30.8083 127.39 30.1133C127.39 29.4184 126.826 28.855 126.131 28.855C125.436 28.855 124.873 29.4184 124.873 30.1133C124.873 30.8083 125.436 31.3717 126.131 31.3717Z" fill="white" stroke="black" stroke-width="0.844167" stroke-linecap="round" stroke-linejoin="round"></path>
<path d="M126.76 35.1468C127.339 35.1468 127.808 34.6773 127.808 34.0982C127.808 33.519 127.339 33.0496 126.76 33.0496C126.18 33.0496 125.711 33.519 125.711 34.0982C125.711 34.6773 126.18 35.1468 126.76 35.1468Z" fill="white" stroke="black" stroke-width="0.844167" stroke-linecap="round" stroke-linejoin="round"></path>
<path d="M140.495 40.2777C142.274 39.847 144.074 39.2578 145.466 38.0698C146.858 36.8817 147.764 34.9714 147.311 33.1982C146.835 31.3365 145.067 30.1217 143.343 29.2742C138.215 26.7544 132.255 25.9662 126.648 27.0666C123.807 27.6242 121.065 28.6659 118.558 30.1127C117.209 30.8909 111.705 34.0598 112.356 35.9043C112.971 37.6467 119.1 39.4034 120.727 39.892C123.705 40.7863 126.792 41.3169 129.897 41.4702C133.452 41.6456 137.034 41.1159 140.495 40.2777Z" stroke="black" stroke-width="0.844167" stroke-linecap="round" stroke-linejoin="round"></path>
<path d="M112.05 36.8333C112.97 37.2622 113.359 38.4614 113.07 39.4342C112.78 40.4071 111.95 41.145 111.027 41.566C110.103 41.9869 109.083 42.1361 108.078 42.2808C104.645 42.7751 101.201 43.2703 97.733 43.3156C90.5458 43.4095 83.3427 41.5221 77.125 37.9159" stroke="black" stroke-width="0.844167" stroke-linecap="round" stroke-linejoin="round"></path>
<path d="M109.912 42.4492C108.066 48.5614 97.633 50.0237 90.7031 49.801" stroke="black" stroke-width="0.844167" stroke-linecap="round" stroke-linejoin="round"></path>
<path d="M124.688 51.5063C122.644 48.8225 119.489 46.9488 116.166 46.3674C121.763 47.7414 127.682 48.8795 133.244 47.3366" stroke="black" stroke-width="0.844167" stroke-linecap="round" stroke-linejoin="round"></path>
<path d="M65.3117 61.1064C64.5077 63.1884 64.3896 65.5287 64.9799 67.681C65.5702 69.8333 66.8656 71.786 68.6191 73.1665" stroke="black" stroke-width="0.844167" stroke-linecap="round" stroke-linejoin="round"></path>
<path d="M138.552 63.4419C140.544 61.0143 142.028 60.3971 143.329 61.9425C144.319 63.1197 142.67 66.8425 141.472 68.4403C142.401 67.5121 146.475 68.6772 143.329 73.0816C138.688 79.5794 127.38 70.4143 112.154 73.2291C96.9267 76.044 100.13 77.5516 90.4182 77.7229C83.4434 77.8459 76.4943 74.9381 71.478 69.4049C68.4363 66.0498 69.5235 59.4624 78.91 63.1766C88.2965 66.8908 88.8271 65.5499 103.118 63.1402C117.409 60.7305 128.897 67.7575 133.981 66.6674C136.52 66.1231 137.631 64.5648 138.552 63.4419Z" fill="#FC743A" stroke="black" stroke-width="0.844167" stroke-linecap="round" stroke-linejoin="round"></path>
<path d="M75.5508 67.0056C81.516 70.0246 88.44 72.1634 95.0595 71.225C99.9442 70.5326 102.486 68.4403 109.575 67.5707C115.606 66.8309 120.813 67.5816 126.62 69.3685C138.688 73.0816 139.616 70.2968 141.82 67.975" fill="#FC743A"></path>
<path d="M75.5508 67.0056C81.516 70.0246 88.44 72.1634 95.0595 71.225C99.9442 70.5326 102.486 68.4403 109.575 67.5707C115.606 66.8309 120.813 67.5816 126.62 69.3685C138.688 73.0816 139.616 70.2968 141.82 67.975" stroke="black" stroke-width="0.844167" stroke-linecap="round" stroke-linejoin="round"></path>
<path d="M145.662 27.4174C146.079 27.0261 146.153 26.1095 145.947 25.4405C145.741 24.7715 145.329 24.3027 144.918 23.8981C141.187 20.2252 136.487 19.6794 132.023 19.7081C125.394 19.7507 118.683 20.8483 112.498 24.4218" fill="#20C954"></path>
<path d="M145.662 27.4174C146.079 27.0261 146.153 26.1095 145.947 25.4405C145.741 24.7715 145.329 24.3027 144.918 23.8981C141.187 20.2252 136.487 19.6794 132.023 19.7081C125.394 19.7507 118.683 20.8483 112.498 24.4218" stroke="black" stroke-width="0.844167" stroke-linecap="round" stroke-linejoin="round"></path>
<path d="M112.697 27.4121C122.906 23.2645 134.738 23.2863 144.932 27.4715C145.595 27.7439 146.267 28.0432 146.782 28.5422C147.045 28.7971 147.35 29.2716 147.462 29.7985C147.627 30.5819 146.814 31.2134 146.065 30.9299C142.261 29.4892 138.396 28.452 134.976 27.5972C128.673 26.0212 125.694 25.7407 113.626 33.1667" fill="#20C954"></path>
<path d="M112.697 27.4121C122.906 23.2645 134.738 23.2863 144.932 27.4715C145.595 27.7439 146.267 28.0432 146.782 28.5422C147.045 28.7971 147.35 29.2716 147.462 29.7985C147.627 30.5819 146.814 31.2134 146.065 30.9299C142.261 29.4892 138.396 28.452 134.976 27.5972C128.673 26.0212 125.694 25.7407 113.626 33.1667" stroke="black" stroke-width="0.844167" stroke-linecap="round" stroke-linejoin="round"></path>
<path d="M106.525 39.4391C108.303 39.0083 110.103 38.4192 111.495 37.2312C112.887 36.0431 113.793 34.1328 113.34 32.3595C112.865 30.4978 111.097 29.283 109.372 28.4356C104.244 25.9158 98.2843 25.1276 92.6778 26.2279C89.8364 26.7856 87.0939 27.8273 84.5868 29.2741C83.2384 30.0522 77.7341 33.2212 78.3853 35.0657C79.0005 36.8081 85.1297 38.5648 86.7563 39.0533C89.734 39.9476 92.8209 40.4783 95.9261 40.6315C99.4817 40.807 103.064 40.2773 106.525 39.4391Z" fill="white" stroke="black" stroke-width="0.844167" stroke-linecap="round" stroke-linejoin="round"></path>
<path d="M94.2576 39.6646C98.1957 39.6646 101.388 36.7554 101.388 33.1668C101.388 29.5781 98.1957 26.6689 94.2576 26.6689C90.3194 26.6689 87.127 29.5781 87.127 33.1668C87.127 36.7554 90.3194 39.6646 94.2576 39.6646Z" fill="black" stroke="black" stroke-width="0.844167" stroke-linecap="round" stroke-linejoin="round"></path>
<path d="M97.0815 33.8885C98.066 33.8885 98.8641 33.0904 98.8641 32.1059C98.8641 31.1213 98.066 30.3232 97.0815 30.3232C96.097 30.3232 95.2988 31.1213 95.2988 32.1059C95.2988 33.0904 96.097 33.8885 97.0815 33.8885Z" fill="white" stroke="black" stroke-width="0.844167" stroke-linecap="round" stroke-linejoin="round"></path>
<path d="M92.1607 30.5337C92.8557 30.5337 93.419 29.9704 93.419 29.2754C93.419 28.5805 92.8557 28.0171 92.1607 28.0171C91.4658 28.0171 90.9023 28.5805 90.9023 29.2754C90.9023 29.9704 91.4658 30.5337 92.1607 30.5337Z" fill="white" stroke="black" stroke-width="0.844167" stroke-linecap="round" stroke-linejoin="round"></path>
<path d="M92.7888 34.3087C93.368 34.3087 93.8375 33.8392 93.8375 33.26C93.8375 32.6809 93.368 32.2114 92.7888 32.2114C92.2097 32.2114 91.7402 32.6809 91.7402 33.26C91.7402 33.8392 92.2097 34.3087 92.7888 34.3087Z" fill="white" stroke="black" stroke-width="0.844167" stroke-linecap="round" stroke-linejoin="round"></path>
<path d="M106.525 39.4391C108.303 39.0083 110.103 38.4192 111.495 37.2312C112.887 36.0431 113.793 34.1328 113.34 32.3595C112.865 30.4978 111.097 29.283 109.372 28.4356C104.244 25.9158 98.2843 25.1276 92.6778 26.2279C89.8364 26.7856 87.0939 27.8273 84.5868 29.2741C83.2384 30.0522 77.7341 33.2212 78.3853 35.0657C79.0005 36.8081 85.1297 38.5648 86.7563 39.0533C89.734 39.9476 92.8209 40.4783 95.9261 40.6315C99.4817 40.807 103.064 40.2773 106.525 39.4391Z" stroke="black" stroke-width="0.844167" stroke-linecap="round" stroke-linejoin="round"></path>
<path d="M73.053 29.7122C78.3283 29.8986 84.8051 23.896 89.6507 21.291C95.5415 18.1241 102.81 19.555 109.289 20.9634C110.138 21.1482 111.016 21.3753 111.694 21.9636C112.371 22.5519 112.784 23.6052 112.423 24.4535C112.138 25.1223 111.448 25.4995 110.769 25.5707C110.091 25.6418 109.412 25.4587 108.749 25.2779C105.667 24.437 102.564 23.6106 99.3988 23.3432C96.2338 23.0757 92.977 23.3903 90.0758 24.7563C87.7739 25.8401 85.1445 27.5639 82.9667 28.9123C79.5134 31.0505 76.2175 32.2702 72.2323 32.4849C71.6781 32.5148 71.0996 32.5316 70.6127 32.816C70.1257 33.1004 69.7709 33.7505 69.9823 34.3078C70.2906 35.1205 71.3509 35.0496 72.1528 34.9352C74.3264 34.625 76.5937 34.1597 78.5231 35.3077" fill="#20C954"></path>
<path d="M73.053 29.7122C78.3283 29.8986 84.8051 23.896 89.6507 21.291C95.5415 18.1241 102.81 19.555 109.289 20.9634C110.138 21.1482 111.016 21.3753 111.694 21.9636C112.371 22.5519 112.784 23.6052 112.423 24.4535C112.138 25.1223 111.448 25.4995 110.769 25.5707C110.091 25.6418 109.412 25.4587 108.749 25.2779C105.667 24.437 102.564 23.6106 99.3988 23.3432C96.2338 23.0757 92.977 23.3903 90.0758 24.7563C87.7739 25.8401 85.1445 27.5639 82.9667 28.9123C79.5134 31.0505 76.2175 32.2702 72.2323 32.4849C71.6781 32.5148 71.0996 32.5316 70.6127 32.816C70.1257 33.1004 69.7709 33.7505 69.9823 34.3078C70.2906 35.1205 71.3509 35.0496 72.1528 34.9352C74.3264 34.625 76.5937 34.1597 78.5231 35.3077" stroke="black" stroke-width="0.844167" stroke-linecap="round" stroke-linejoin="round"></path>
<path d="M23.9932 73.9277L19.4043 75.9418" stroke="black" stroke-width="0.422084" stroke-linecap="round" stroke-linejoin="round"></path>
<path d="M25.71 77.3579L21.1211 79.372" stroke="black" stroke-width="0.422084" stroke-linecap="round" stroke-linejoin="round"></path>
<path d="M19.2198 80.2058L14.6309 82.2199" stroke="black" stroke-width="0.422084" stroke-linecap="round" stroke-linejoin="round"></path>
<path d="M32.1983 74.5103L27.6094 76.5243" stroke="black" stroke-width="0.422084" stroke-linecap="round" stroke-linejoin="round"></path>
<path d="M21.4307 77.1436L16.8418 79.1576" stroke="black" stroke-width="0.422084" stroke-linecap="round" stroke-linejoin="round"></path>
<path d="M27.9209 74.2961L23.332 76.3103" stroke="black" stroke-width="0.422084" stroke-linecap="round" stroke-linejoin="round"></path>
<path d="M64.8765 18.8765L61.1211 22.1948" stroke="black" stroke-width="0.422084" stroke-linecap="round" stroke-linejoin="round"></path>
<path d="M67.5582 21.6194L63.8027 24.9378" stroke="black" stroke-width="0.422084" stroke-linecap="round" stroke-linejoin="round"></path>
<path d="M62.2476 26.311L58.4922 29.6294" stroke="black" stroke-width="0.422084" stroke-linecap="round" stroke-linejoin="round"></path>
<path d="M72.8667 16.928L69.1113 20.2463" stroke="black" stroke-width="0.422084" stroke-linecap="round" stroke-linejoin="round"></path>
<path d="M63.4214 22.7205L59.666 26.0388" stroke="black" stroke-width="0.422084" stroke-linecap="round" stroke-linejoin="round"></path>
<path d="M68.732 18.0288L64.9766 21.3472" stroke="black" stroke-width="0.422084" stroke-linecap="round" stroke-linejoin="round"></path>
<path d="M99.1875 8.09885C99.1875 8.09885 111.262 6.99612 118.791 10.0413" stroke="white" stroke-width="0.844167" stroke-linecap="round" stroke-linejoin="round"></path>
<path d="M132.422 50.0093C135.909 52.4011 138.083 56.5952 138.029 60.8233" stroke="white" stroke-width="0.844167" stroke-linecap="round" stroke-linejoin="round"></path>
<path d="M58.535 68.0682C57.6711 68.0682 56.9707 67.2103 56.9707 66.152C56.9707 65.0937 57.6711 64.2358 58.535 64.2358" fill="black"></path>
<path d="M61.7009 70.7728C60.837 70.7728 60.1367 69.9149 60.1367 68.8566C60.1367 67.7983 60.837 66.9404 61.7009 66.9404" fill="black"></path>
<path d="M61.7009 65.3624C60.837 65.3624 60.1367 64.5045 60.1367 63.4462C60.1367 62.3879 60.837 61.53 61.7009 61.53" fill="black"></path>
</svg><style>@media (prefers-color-scheme: light) { :root { filter: none; } }
@media (prefers-color-scheme: dark) { :root { filter: none; } }
</style></svg>